<svg width="777" height="467" viewBox="0 0 777 467" fill="none" xmlns="http://www.w3.org/2000/svg">
<g filter="url(#filter0_dd_17_556)">
<path fill-rule="evenodd" clip-rule="evenodd" d="M679.031 33H96.9691C95.9093 67.2565 67.7191 94.7366 33 94.9981V169.002C68.3922 169.269 97 197.819 97 233C97 268.181 68.3922 296.731 33 296.998V373.002C67.3806 373.261 95.359 400.21 96.9304 434H679.07C680.649 400.047 708.891 373 743.5 373C743.667 373 743.833 373.001 744 373.002V296.998C743.833 296.999 743.667 297 743.5 297C707.878 297 679 268.346 679 233C679 197.654 707.878 169 743.5 169C743.667 169 743.833 169.001 744 169.002V94.9981C743.91 94.9988 743.82 94.9993 743.729 94.9996C743.653 94.9999 743.576 95 743.5 95C708.552 95 680.096 67.4208 679.031 33Z" fill="#075600"/>
</g>
<path d="M173.728 142.104V150.6H151.84V142.104H173.728ZM143.008 137.88V127.944H160.864V137.88H158.128V155.064H160.864V165H143.008V155.064H145.744V137.88H143.008ZM165.184 137.88V127.944H183.04V137.88H180.304V155.064H183.04V165H165.184V155.064H167.92V137.88H165.184ZM212.367 143.88V152.376H190.479V143.88H212.367ZM219.999 155.064H222.255V165H203.247V155.064H206.271L199.023 130.44L203.919 138.12H199.215L203.295 130.44L196.047 155.064H199.647V165H181.791V155.064H184.287L194.031 127.944H210.255L219.999 155.064ZM221.014 165V155.064H223.75V137.88H221.014V127.944H236.134V155.064H238.87V165H221.014ZM233.11 150.6V142.104H241.078C242.118 142.104 242.894 141.928 243.406 141.576C243.934 141.208 244.198 140.664 244.198 139.944C244.198 139.224 243.91 138.704 243.334 138.384C242.774 138.048 242.038 137.88 241.126 137.88H233.926V127.944H241.606C246.774 127.944 250.646 128.944 253.222 130.944C255.814 132.928 257.11 135.688 257.11 139.224C257.11 141.016 256.766 142.616 256.078 144.024C255.406 145.432 254.406 146.624 253.078 147.6C251.75 148.576 250.11 149.32 248.158 149.832C246.222 150.344 243.99 150.6 241.462 150.6H233.11ZM255.259 165V155.064H257.995V137.88H255.259V127.944H270.379V155.064H273.115V165H255.259ZM267.355 150.6V142.104H275.323C276.363 142.104 277.139 141.928 277.651 141.576C278.179 141.208 278.443 140.664 278.443 139.944C278.443 139.224 278.155 138.704 277.579 138.384C277.019 138.048 276.283 137.88 275.371 137.88H268.171V127.944H275.851C281.019 127.944 284.891 128.944 287.467 130.944C290.059 132.928 291.355 135.688 291.355 139.224C291.355 141.016 291.011 142.616 290.323 144.024C289.651 145.432 288.651 146.624 287.323 147.6C285.995 148.576 284.355 149.32 282.403 149.832C280.467 150.344 278.235 150.6 275.707 150.6H267.355ZM326.125 137.88L314.605 151.512H302.701L291.133 137.88H289.213V127.944H308.941V137.88H305.773L312.877 146.856L307.741 143.16H312.445L307.309 146.856L314.413 137.88H311.245V127.944H328.093V137.88H326.125ZM314.845 146.328V155.064H317.773V165H299.533V155.064H302.461V146.328H314.845ZM359.652 165L342.276 127.944H355.428L372.804 165H359.652ZM336.9 137.88V127.944H355.428L351.732 143.88H349.428V155.064H352.068V165H336.9V155.064H339.54V137.88H336.9ZM363.012 137.88V127.944H378.18V137.88H375.54V165H367.428L363.636 148.872H365.652V137.88H363.012ZM399.093 142.104V150.6H385.461V142.104H399.093ZM402.309 149.304H414.693V165H376.629V155.064H379.365V137.88H376.629V127.944H414.261V143.64H401.877V137.88H391.749V155.064H402.309V149.304ZM457.418 127.944H473.546V137.88H470.81L463.466 165H447.866L440.186 137.88L446.426 150.264H441.914L447.242 137.88L438.938 165H423.242L415.898 137.88H413.162V127.944H432.506V137.88H429.242L435.674 165L428.522 152.664H436.106L428.954 165L437.834 137.88H434.618V127.944H455.306V137.88H451.994L460.97 165L453.338 152.664H461.402L454.25 165L460.682 137.88H457.418V127.944ZM518.892 137.88L507.372 151.512H495.468L483.9 137.88H481.98V127.944H501.708V137.88H498.54L505.644 146.856L500.508 143.16H505.212L500.076 146.856L507.18 137.88H504.012V127.944H520.86V137.88H518.892ZM507.612 146.328V155.064H510.54V165H492.3V155.064H495.228V146.328H507.612ZM542.073 142.104V150.6H528.441V142.104H542.073ZM545.289 149.304H557.673V165H519.609V155.064H522.345V137.88H519.609V127.944H557.241V143.64H544.857V137.88H534.729V155.064H545.289V149.304ZM587.562 143.88V152.376H565.674V143.88H587.562ZM595.194 155.064H597.45V165H578.442V155.064H581.466L574.218 130.44L579.114 138.12H574.41L578.49 130.44L571.242 155.064H574.842V165H556.986V155.064H559.482L569.226 127.944H585.45L595.194 155.064ZM621.649 143.016C623.649 143.496 625.145 144.24 626.137 145.248C627.129 146.256 627.793 147.16 628.129 147.96L631.105 155.064H633.073V165H620.593L616.705 151.944C616.561 151.464 616.401 151.144 616.225 150.984C616.049 150.824 615.777 150.744 615.409 150.744H610.993L621.649 143.016ZM610.369 137.88V127.944H616.849C622.113 127.944 626.065 128.88 628.705 130.752C631.361 132.608 632.689 135.192 632.689 138.504C632.689 139.896 632.457 141.088 631.993 142.08C631.545 143.072 630.921 143.928 630.121 144.648C629.337 145.352 628.449 145.976 627.457 146.52V147.336L619.105 150.744H607.153V142.248H616.609C617.313 142.248 617.905 142.168 618.385 142.008C618.881 141.848 619.249 141.608 619.489 141.288C619.745 140.968 619.873 140.568 619.873 140.088C619.873 139.32 619.577 138.76 618.985 138.408C618.393 138.056 617.617 137.88 616.657 137.88H610.369ZM596.209 137.88V127.944H614.065V137.88H611.329V155.064H614.257V165H596.209V155.064H598.945V137.88H596.209Z" fill="white"/>
<path d="M210.114 279.4L200.514 290.76H190.594L180.954 279.4H179.354V271.12H195.794V279.4H193.154L199.074 286.88L194.794 283.8H198.714L194.434 286.88L200.354 279.4H197.714V271.12H211.754V279.4H210.114ZM200.714 286.44V293.72H203.154V302H187.954V293.72H190.394V286.44H200.714ZM218.603 302.56C215.803 302.56 213.377 302.053 211.323 301.04C209.283 300.027 207.703 298.613 206.583 296.8C205.477 294.973 204.923 292.847 204.923 290.42C204.923 287.98 205.477 285.847 206.583 284.02C207.703 282.193 209.283 280.773 211.323 279.76C213.377 278.747 215.803 278.24 218.603 278.24C221.403 278.24 223.823 278.747 225.863 279.76C227.917 280.773 229.497 282.193 230.603 284.02C231.723 285.847 232.283 287.98 232.283 290.42C232.283 292.847 231.73 294.973 230.623 296.8C229.517 298.613 227.937 300.027 225.883 301.04C223.843 302.053 221.417 302.56 218.603 302.56ZM218.603 293.84C219.257 293.84 219.823 293.693 220.303 293.4C220.783 293.107 221.15 292.707 221.403 292.2C221.67 291.68 221.803 291.08 221.803 290.4C221.803 289.72 221.67 289.12 221.403 288.6C221.15 288.08 220.783 287.68 220.303 287.4C219.823 287.107 219.257 286.96 218.603 286.96C217.95 286.96 217.383 287.107 216.903 287.4C216.423 287.68 216.05 288.08 215.783 288.6C215.53 289.12 215.403 289.72 215.403 290.4C215.403 291.08 215.53 291.68 215.783 292.2C216.05 292.707 216.423 293.107 216.903 293.4C217.383 293.693 217.95 293.84 218.603 293.84ZM247.88 286.92H245.68V278.8H258.04V293.88H260.24V302H247.88V286.92ZM243 278.8V292C243 292.76 243.193 293.373 243.58 293.84C243.967 294.293 244.467 294.52 245.08 294.52C245.533 294.52 245.973 294.373 246.4 294.08C246.827 293.773 247.18 293.267 247.46 292.56C247.74 291.84 247.88 290.867 247.88 289.64L249.24 295.28H247.56C247.227 297.693 246.467 299.513 245.28 300.74C244.093 301.953 242.347 302.56 240.04 302.56C237.6 302.56 235.787 301.933 234.6 300.68C233.427 299.413 232.84 297.68 232.84 295.48V286.96H230.72V278.8H243ZM280.254 310.92C277.44 310.92 275.027 310.793 273.014 310.54C271.014 310.287 269.48 309.88 268.414 309.32C267.347 308.76 266.814 308.027 266.814 307.12C266.814 305.973 267.594 305.113 269.154 304.54C270.714 303.98 272.774 303.613 275.334 303.44V302.6L278.374 303.12C277.867 303.12 277.48 303.16 277.214 303.24C276.947 303.333 276.767 303.447 276.674 303.58C276.58 303.713 276.534 303.853 276.534 304C276.534 304.307 276.694 304.547 277.014 304.72C277.334 304.893 277.787 305.013 278.374 305.08C278.974 305.16 279.68 305.2 280.494 305.2C281.854 305.2 282.867 305.1 283.534 304.9C284.2 304.713 284.534 304.413 284.534 304C284.534 303.413 283.88 303.12 282.574 303.12H276.294C273.534 303.12 271.34 302.76 269.714 302.04C268.1 301.333 267.294 300.213 267.294 298.68C267.294 297.293 268.014 296.26 269.454 295.58C270.894 294.9 273.294 294.533 276.654 294.48V293.36L279.614 294.44H279.214C278.774 294.44 278.44 294.473 278.214 294.54C278 294.607 277.894 294.733 277.894 294.92C277.894 295.12 278 295.26 278.214 295.34C278.44 295.407 278.774 295.44 279.214 295.44H284.654C286.334 295.44 287.92 295.707 289.414 296.24C290.92 296.773 292.14 297.607 293.074 298.74C294.02 299.873 294.494 301.347 294.494 303.16C294.494 304.88 294 306.313 293.014 307.46C292.027 308.607 290.48 309.467 288.374 310.04C286.28 310.627 283.574 310.92 280.254 310.92ZM279.614 294.44C277.094 294.44 274.927 294.107 273.114 293.44C271.314 292.773 269.927 291.833 268.954 290.62C267.98 289.407 267.494 287.973 267.494 286.32C267.494 284.68 267.967 283.26 268.914 282.06C269.874 280.847 271.24 279.913 273.014 279.26C274.787 278.607 276.907 278.28 279.374 278.28C281.72 278.28 283.72 278.613 285.374 279.28C287.04 279.933 288.28 280.88 289.094 282.12C289.92 282.92 290.474 283.713 290.754 284.5C291.034 285.273 291.174 286.08 291.174 286.92C291.174 288.453 290.707 289.787 289.774 290.92C288.854 292.04 287.527 292.907 285.794 293.52C284.074 294.133 282.014 294.44 279.614 294.44ZM279.654 288.52C280.054 288.52 280.4 288.433 280.694 288.26C280.987 288.073 281.214 287.82 281.374 287.5C281.534 287.167 281.614 286.773 281.614 286.32C281.614 285.867 281.527 285.48 281.354 285.16C281.194 284.827 280.967 284.573 280.674 284.4C280.38 284.213 280.04 284.12 279.654 284.12C279.267 284.12 278.92 284.213 278.614 284.4C278.32 284.573 278.087 284.827 277.914 285.16C277.74 285.48 277.654 285.867 277.654 286.32C277.654 286.773 277.734 287.167 277.894 287.5C278.067 287.82 278.3 288.073 278.594 288.26C278.9 288.433 279.254 288.52 279.654 288.52ZM291.174 286.92L289.454 284.56L288.014 282.48L289.174 281.88C289.08 281.68 289.007 281.447 288.954 281.18C288.914 280.913 288.894 280.693 288.894 280.52C288.894 279.667 289.094 278.973 289.494 278.44C289.894 277.907 290.454 277.513 291.174 277.26C291.907 277.007 292.76 276.88 293.734 276.88C294.04 276.88 294.314 276.893 294.554 276.92C294.807 276.933 295.04 276.96 295.254 277V286.52C294.64 286.373 294.034 286.273 293.434 286.22C292.847 286.153 292.36 286.12 291.974 286.12C291.774 286.12 291.614 286.14 291.494 286.18C291.387 286.22 291.307 286.287 291.254 286.38C291.2 286.46 291.174 286.573 291.174 286.72C291.174 286.76 291.174 286.787 291.174 286.8C291.174 286.813 291.174 286.827 291.174 286.84C291.174 286.853 291.174 286.88 291.174 286.92ZM306.425 302.56C303.625 302.56 301.198 302.053 299.145 301.04C297.105 300.027 295.525 298.613 294.405 296.8C293.298 294.973 292.745 292.847 292.745 290.42C292.745 287.98 293.298 285.847 294.405 284.02C295.525 282.193 297.105 280.773 299.145 279.76C301.198 278.747 303.625 278.24 306.425 278.24C309.225 278.24 311.645 278.747 313.685 279.76C315.738 280.773 317.318 282.193 318.425 284.02C319.545 285.847 320.105 287.98 320.105 290.42C320.105 292.847 319.552 294.973 318.445 296.8C317.338 298.613 315.758 300.027 313.705 301.04C311.665 302.053 309.238 302.56 306.425 302.56ZM306.425 293.84C307.078 293.84 307.645 293.693 308.125 293.4C308.605 293.107 308.972 292.707 309.225 292.2C309.492 291.68 309.625 291.08 309.625 290.4C309.625 289.72 309.492 289.12 309.225 288.6C308.972 288.08 308.605 287.68 308.125 287.4C307.645 287.107 307.078 286.96 306.425 286.96C305.772 286.96 305.205 287.107 304.725 287.4C304.245 287.68 303.872 288.08 303.605 288.6C303.352 289.12 303.225 289.72 303.225 290.4C303.225 291.08 303.352 291.68 303.605 292.2C303.872 292.707 304.245 293.107 304.725 293.4C305.205 293.693 305.772 293.84 306.425 293.84ZM331.942 292.12C331.942 292.56 332.008 292.893 332.142 293.12C332.288 293.333 332.488 293.44 332.742 293.44C333.008 293.44 333.208 293.333 333.342 293.12C333.475 292.893 333.542 292.56 333.542 292.12V290.08H342.022V292.08C342.022 294.133 341.662 295.933 340.942 297.48C340.235 299.027 339.122 300.233 337.602 301.1C336.095 301.967 334.142 302.4 331.742 302.4C329.422 302.4 327.528 301.967 326.062 301.1C324.595 300.233 323.515 299.033 322.822 297.5C322.128 295.953 321.782 294.16 321.782 292.12V286.96H318.582V278.8H321.782V272.32H331.942V278.8H342.062L342.022 286.96H331.942V292.12ZM349.927 302V293.88H353.487V286.92H349.927V278.8H353.487V278.68C353.487 275.933 354.333 273.773 356.027 272.2C357.72 270.627 360.473 269.84 364.287 269.84C367.313 269.84 369.667 270.393 371.347 271.5C373.027 272.607 374.087 274.373 374.527 276.8L366.607 278.12C366.527 277.693 366.36 277.373 366.107 277.16C365.853 276.947 365.527 276.84 365.127 276.84C364.647 276.84 364.28 276.993 364.027 277.3C363.773 277.593 363.647 278.053 363.647 278.68V278.8H371.887V286.92H363.647V293.88H369.047V302H349.927ZM383.051 293.88H384.891V302H370.691V293.88H372.891V286.92H370.691V278.8H383.051V293.88ZM390.291 287.84C390.131 287.8 389.951 287.773 389.751 287.76C389.551 287.733 389.277 287.72 388.931 287.72C386.957 287.72 385.484 288.08 384.511 288.8C383.537 289.52 383.051 290.613 383.051 292.08L381.691 285.52H383.371C383.477 283.947 383.751 282.64 384.191 281.6C384.644 280.547 385.284 279.76 386.111 279.24C386.951 278.707 388.011 278.44 389.291 278.44C389.491 278.44 389.671 278.453 389.831 278.48C390.004 278.493 390.157 278.52 390.291 278.56V287.84ZM402.16 302.56C399.36 302.56 396.933 302.053 394.88 301.04C392.84 300.027 391.26 298.613 390.14 296.8C389.033 294.973 388.48 292.84 388.48 290.4C388.48 287.973 389.026 285.847 390.12 284.02C391.213 282.193 392.766 280.773 394.78 279.76C396.793 278.747 399.173 278.24 401.92 278.24C404.666 278.24 407.046 278.747 409.06 279.76C411.073 280.773 412.626 282.193 413.72 284.02C414.813 285.847 415.36 287.973 415.36 290.4C415.36 290.653 415.36 290.907 415.36 291.16C415.36 291.4 415.36 291.653 415.36 291.92H405.36C405.386 291.64 405.4 291.353 405.4 291.06C405.4 290.767 405.4 290.48 405.4 290.2C405.4 289.373 405.266 288.673 405 288.1C404.746 287.527 404.38 287.093 403.9 286.8C403.42 286.507 402.853 286.36 402.2 286.36C401.533 286.36 400.953 286.52 400.46 286.84C399.966 287.147 399.586 287.6 399.32 288.2C399.053 288.8 398.92 289.533 398.92 290.4C398.92 291.08 399.06 291.68 399.34 292.2C399.62 292.707 400.013 293.107 400.52 293.4C401.04 293.693 401.653 293.84 402.36 293.84C403 293.84 403.56 293.733 404.04 293.52C404.533 293.293 404.92 293 405.2 292.64L415.08 294.92C414.186 297.293 412.62 299.16 410.38 300.52C408.14 301.88 405.4 302.56 402.16 302.56ZM394.96 291.92V288.56H407.2L406.96 291.92H394.96ZM427.767 302.56C424.967 302.56 422.541 302.053 420.487 301.04C418.447 300.027 416.867 298.613 415.747 296.8C414.641 294.973 414.087 292.84 414.087 290.4C414.087 287.973 414.634 285.847 415.727 284.02C416.821 282.193 418.374 280.773 420.387 279.76C422.401 278.747 424.781 278.24 427.527 278.24C430.274 278.24 432.654 278.747 434.667 279.76C436.681 280.773 438.234 282.193 439.327 284.02C440.421 285.847 440.967 287.973 440.967 290.4C440.967 290.653 440.967 290.907 440.967 291.16C440.967 291.4 440.967 291.653 440.967 291.92H430.967C430.994 291.64 431.007 291.353 431.007 291.06C431.007 290.767 431.007 290.48 431.007 290.2C431.007 289.373 430.874 288.673 430.607 288.1C430.354 287.527 429.987 287.093 429.507 286.8C429.027 286.507 428.461 286.36 427.807 286.36C427.141 286.36 426.561 286.52 426.067 286.84C425.574 287.147 425.194 287.6 424.927 288.2C424.661 288.8 424.527 289.533 424.527 290.4C424.527 291.08 424.667 291.68 424.947 292.2C425.227 292.707 425.621 293.107 426.127 293.4C426.647 293.693 427.261 293.84 427.967 293.84C428.607 293.84 429.167 293.733 429.647 293.52C430.141 293.293 430.527 293 430.807 292.64L440.687 294.92C439.794 297.293 438.227 299.16 435.987 300.52C433.747 301.88 431.007 302.56 427.767 302.56ZM420.567 291.92V288.56H432.807L432.567 291.92H420.567ZM478.436 302V293.88H480.156V288.8C480.156 288.04 479.963 287.433 479.576 286.98C479.203 286.513 478.716 286.28 478.116 286.28C477.703 286.28 477.296 286.433 476.896 286.74C476.496 287.033 476.163 287.54 475.896 288.26C475.643 288.967 475.516 289.933 475.516 291.16L474.156 285.12H475.836C476.156 282.84 476.896 281.127 478.056 279.98C479.23 278.82 480.943 278.24 483.196 278.24C485.596 278.24 487.383 278.873 488.556 280.14C489.73 281.393 490.316 283.133 490.316 285.36V293.88H492.316V302H478.436ZM448.356 302V293.88H450.556V286.92H448.356V278.8H460.716V293.88H462.436V302H448.356ZM463.636 302V293.88H465.356V288.8C465.356 288.04 465.163 287.433 464.776 286.98C464.403 286.513 463.916 286.28 463.316 286.28C462.903 286.28 462.496 286.433 462.096 286.74C461.696 287.033 461.363 287.54 461.096 288.26C460.843 288.967 460.716 289.933 460.716 291.16L459.356 285.12H461.036C461.356 282.84 462.096 281.127 463.256 279.98C464.43 278.82 466.143 278.24 468.396 278.24C470.796 278.24 472.583 278.873 473.756 280.14C474.93 281.393 475.516 283.133 475.516 285.36V293.88H477.516V302H463.636ZM504.356 302.56C501.556 302.56 499.13 302.053 497.076 301.04C495.036 300.027 493.456 298.613 492.336 296.8C491.23 294.973 490.676 292.847 490.676 290.42C490.676 287.98 491.23 285.847 492.336 284.02C493.456 282.193 495.036 280.773 497.076 279.76C499.13 278.747 501.556 278.24 504.356 278.24C507.156 278.24 509.576 278.747 511.616 279.76C513.67 280.773 515.25 282.193 516.356 284.02C517.476 285.847 518.036 287.98 518.036 290.42C518.036 292.847 517.483 294.973 516.376 296.8C515.27 298.613 513.69 300.027 511.636 301.04C509.596 302.053 507.17 302.56 504.356 302.56ZM504.356 293.84C505.01 293.84 505.576 293.693 506.056 293.4C506.536 293.107 506.903 292.707 507.156 292.2C507.423 291.68 507.556 291.08 507.556 290.4C507.556 289.72 507.423 289.12 507.156 288.6C506.903 288.08 506.536 287.68 506.056 287.4C505.576 287.107 505.01 286.96 504.356 286.96C503.703 286.96 503.136 287.107 502.656 287.4C502.176 287.68 501.803 288.08 501.536 288.6C501.283 289.12 501.156 289.72 501.156 290.4C501.156 291.08 501.283 291.68 501.536 292.2C501.803 292.707 502.176 293.107 502.656 293.4C503.136 293.693 503.703 293.84 504.356 293.84ZM529.393 293.88H531.233V302H517.033V293.88H519.233V286.92H517.033V278.8H529.393V293.88ZM534.273 293.88V288.8C534.273 288.04 534.08 287.433 533.693 286.98C533.32 286.513 532.82 286.28 532.193 286.28C531.62 286.28 531.12 286.48 530.693 286.88C530.28 287.28 529.96 287.847 529.733 288.58C529.506 289.3 529.393 290.16 529.393 291.16L528.033 285.92H529.713C529.94 284.227 530.386 282.813 531.053 281.68C531.733 280.533 532.613 279.673 533.693 279.1C534.773 278.527 536.046 278.24 537.513 278.24C539.753 278.24 541.466 278.86 542.653 280.1C543.84 281.34 544.433 283.12 544.433 285.44V293.88H546.433V302H532.433V293.88H534.273ZM558.463 302.56C555.663 302.56 553.236 302.053 551.183 301.04C549.143 300.027 547.563 298.613 546.443 296.8C545.336 294.973 544.783 292.84 544.783 290.4C544.783 287.973 545.329 285.847 546.423 284.02C547.516 282.193 549.069 280.773 551.083 279.76C553.096 278.747 555.476 278.24 558.223 278.24C560.969 278.24 563.349 278.747 565.363 279.76C567.376 280.773 568.929 282.193 570.023 284.02C571.116 285.847 571.663 287.973 571.663 290.4C571.663 290.653 571.663 290.907 571.663 291.16C571.663 291.4 571.663 291.653 571.663 291.92H561.663C561.689 291.64 561.703 291.353 561.703 291.06C561.703 290.767 561.703 290.48 561.703 290.2C561.703 289.373 561.569 288.673 561.303 288.1C561.049 287.527 560.683 287.093 560.203 286.8C559.723 286.507 559.156 286.36 558.503 286.36C557.836 286.36 557.256 286.52 556.763 286.84C556.269 287.147 555.889 287.6 555.623 288.2C555.356 288.8 555.223 289.533 555.223 290.4C555.223 291.08 555.363 291.68 555.643 292.2C555.923 292.707 556.316 293.107 556.823 293.4C557.343 293.693 557.956 293.84 558.663 293.84C559.303 293.84 559.863 293.733 560.343 293.52C560.836 293.293 561.223 293 561.503 292.64L571.383 294.92C570.489 297.293 568.923 299.16 566.683 300.52C564.443 301.88 561.703 302.56 558.463 302.56ZM551.263 291.92V288.56H563.503L563.263 291.92H551.263ZM586.047 278.8H598.647V286.92H597.167L590.287 302.88C589.047 305.72 587.414 307.68 585.387 308.76C583.374 309.853 580.874 310.4 577.887 310.4H571.207V302.4H577.887C578.834 302.4 579.574 302.233 580.107 301.9C580.641 301.553 581.047 301.053 581.327 300.4L585.207 299.92L579.207 305.24L571.127 286.92H569.647V278.8H584.687V286.92H582.447L587.287 299.48L582.087 294.24H587.447L583.567 299.48L588.287 286.92H586.047V278.8ZM114.226 352.56C111.773 352.56 109.533 352.173 107.506 351.4C105.479 350.613 103.726 349.507 102.246 348.08C100.779 346.64 99.6393 344.94 98.8259 342.98C98.0259 341.02 97.6259 338.853 97.6259 336.48C97.6259 334.133 98.0126 331.993 98.7859 330.06C99.5593 328.113 100.606 326.433 101.926 325.02C103.246 323.593 104.739 322.493 106.406 321.72C108.086 320.947 109.826 320.56 111.626 320.56C113.306 320.56 114.726 320.907 115.886 321.6C117.059 322.293 117.966 323.34 118.606 324.74C119.259 326.14 119.653 327.907 119.786 330.04H121.706L120.106 333.92C119.693 332.8 118.973 331.913 117.946 331.26C116.919 330.607 115.733 330.28 114.386 330.28C113.173 330.28 112.106 330.54 111.186 331.06C110.279 331.58 109.573 332.307 109.066 333.24C108.559 334.173 108.306 335.253 108.306 336.48C108.306 337.413 108.446 338.273 108.726 339.06C109.019 339.833 109.426 340.507 109.946 341.08C110.479 341.64 111.106 342.073 111.826 342.38C112.559 342.687 113.359 342.84 114.226 342.84C115.279 342.84 116.226 342.613 117.066 342.16C117.906 341.707 118.586 341.08 119.106 340.28C119.639 339.467 119.973 338.52 120.106 337.44L130.666 338.92C130.306 341.64 129.386 344.027 127.906 346.08C126.439 348.12 124.533 349.713 122.186 350.86C119.853 351.993 117.199 352.56 114.226 352.56ZM120.106 333.92V321.12H130.426V333.92H120.106ZM141.654 343.88H143.494V352H129.294V343.88H131.494V328.52H129.294V320.4H141.654V343.88ZM146.534 343.88V338.8C146.534 338.04 146.354 337.433 145.994 336.98C145.647 336.513 145.174 336.28 144.574 336.28C144.121 336.28 143.667 336.447 143.214 336.78C142.774 337.113 142.401 337.673 142.094 338.46C141.801 339.233 141.654 340.293 141.654 341.64L140.294 336H141.974C142.201 334.28 142.621 332.847 143.234 331.7C143.847 330.54 144.681 329.673 145.734 329.1C146.801 328.527 148.121 328.24 149.694 328.24C152.054 328.24 153.807 328.873 154.954 330.14C156.114 331.393 156.694 333.133 156.694 335.36V343.88H158.694V352H144.694V343.88H146.534ZM170.728 352.56C167.928 352.56 165.501 352.053 163.448 351.04C161.408 350.027 159.828 348.613 158.708 346.8C157.601 344.973 157.048 342.84 157.048 340.4C157.048 337.973 157.594 335.847 158.688 334.02C159.781 332.193 161.334 330.773 163.348 329.76C165.361 328.747 167.741 328.24 170.488 328.24C173.234 328.24 175.614 328.747 177.628 329.76C179.641 330.773 181.194 332.193 182.288 334.02C183.381 335.847 183.928 337.973 183.928 340.4C183.928 340.653 183.928 340.907 183.928 341.16C183.928 341.4 183.928 341.653 183.928 341.92H173.928C173.954 341.64 173.968 341.353 173.968 341.06C173.968 340.767 173.968 340.48 173.968 340.2C173.968 339.373 173.834 338.673 173.568 338.1C173.314 337.527 172.948 337.093 172.468 336.8C171.988 336.507 171.421 336.36 170.768 336.36C170.101 336.36 169.521 336.52 169.028 336.84C168.534 337.147 168.154 337.6 167.888 338.2C167.621 338.8 167.488 339.533 167.488 340.4C167.488 341.08 167.628 341.68 167.908 342.2C168.188 342.707 168.581 343.107 169.088 343.4C169.608 343.693 170.221 343.84 170.928 343.84C171.568 343.84 172.128 343.733 172.608 343.52C173.101 343.293 173.488 343 173.768 342.64L183.648 344.92C182.754 347.293 181.188 349.16 178.948 350.52C176.708 351.88 173.968 352.56 170.728 352.56ZM163.528 341.92V338.56H175.768L175.528 341.92H163.528ZM196.335 352.56C193.535 352.56 191.109 352.053 189.055 351.04C187.015 350.027 185.435 348.613 184.315 346.8C183.209 344.973 182.655 342.84 182.655 340.4C182.655 338.573 182.949 336.92 183.535 335.44C184.122 333.947 184.915 332.667 185.915 331.6C186.929 330.52 188.062 329.693 189.315 329.12C190.582 328.533 191.882 328.24 193.215 328.24C194.429 328.24 195.455 328.493 196.295 329C197.135 329.507 197.795 330.287 198.275 331.34C198.755 332.38 199.055 333.707 199.175 335.32H201.215L199.495 339.84C199.455 339.08 199.295 338.44 199.015 337.92C198.749 337.4 198.382 337.013 197.915 336.76C197.462 336.493 196.935 336.36 196.335 336.36C195.682 336.36 195.109 336.513 194.615 336.82C194.135 337.127 193.762 337.567 193.495 338.14C193.229 338.7 193.095 339.36 193.095 340.12C193.095 340.907 193.229 341.58 193.495 342.14C193.775 342.687 194.162 343.107 194.655 343.4C195.162 343.693 195.762 343.84 196.455 343.84C197.295 343.84 197.982 343.633 198.515 343.22C199.049 342.807 199.375 342.253 199.495 341.56L209.655 344.24C209.015 346.813 207.522 348.847 205.175 350.34C202.842 351.82 199.895 352.56 196.335 352.56ZM199.495 339.84V328.8H209.655V339.84H199.495ZM220.626 343.88H222.066V352H208.266V343.88H210.466V328.52H208.266V320.4H220.626V343.88ZM231.946 337.52L236.626 343.88H238.426V352H223.706V343.88H225.346L222.906 340.56L231.946 337.52ZM217.026 345.24L215.786 342.12L226.266 336.92H222.466V328.8H238.026V336.92H235.026L217.026 345.24ZM261.386 328.8H273.986V336.92H272.506L265.626 352.88C264.386 355.72 262.752 357.68 260.726 358.76C258.712 359.853 256.212 360.4 253.226 360.4H246.546V352.4H253.226C254.172 352.4 254.912 352.233 255.446 351.9C255.979 351.553 256.386 351.053 256.666 350.4L260.546 349.92L254.546 355.24L246.466 336.92H244.986V328.8H260.026V336.92H257.786L262.626 349.48L257.426 344.24H262.786L258.906 349.48L263.626 336.92H261.386V328.8ZM289.545 336.92H287.345V328.8H299.705V343.88H301.905V352H289.545V336.92ZM284.665 328.8V342C284.665 342.76 284.858 343.373 285.245 343.84C285.631 344.293 286.131 344.52 286.745 344.52C287.198 344.52 287.638 344.373 288.065 344.08C288.491 343.773 288.845 343.267 289.125 342.56C289.405 341.84 289.545 340.867 289.545 339.64L290.905 345.28H289.225C288.891 347.693 288.131 349.513 286.945 350.74C285.758 351.953 284.011 352.56 281.705 352.56C279.265 352.56 277.451 351.933 276.265 350.68C275.091 349.413 274.505 347.68 274.505 345.48V336.96H272.385V328.8H284.665ZM313.945 352.56C311.145 352.56 308.718 352.053 306.665 351.04C304.625 350.027 303.045 348.613 301.925 346.8C300.818 344.973 300.265 342.847 300.265 340.42C300.265 337.98 300.818 335.847 301.925 334.02C303.045 332.193 304.625 330.773 306.665 329.76C308.718 328.747 311.145 328.24 313.945 328.24C316.745 328.24 319.165 328.747 321.205 329.76C323.258 330.773 324.838 332.193 325.945 334.02C327.065 335.847 327.625 337.98 327.625 340.42C327.625 342.847 327.071 344.973 325.965 346.8C324.858 348.613 323.278 350.027 321.225 351.04C319.185 352.053 316.758 352.56 313.945 352.56ZM313.945 343.84C314.598 343.84 315.165 343.693 315.645 343.4C316.125 343.107 316.491 342.707 316.745 342.2C317.011 341.68 317.145 341.08 317.145 340.4C317.145 339.72 317.011 339.12 316.745 338.6C316.491 338.08 316.125 337.68 315.645 337.4C315.165 337.107 314.598 336.96 313.945 336.96C313.291 336.96 312.725 337.107 312.245 337.4C311.765 337.68 311.391 338.08 311.125 338.6C310.871 339.12 310.745 339.72 310.745 340.4C310.745 341.08 310.871 341.68 311.125 342.2C311.391 342.707 311.765 343.107 312.245 343.4C312.725 343.693 313.291 343.84 313.945 343.84ZM343.221 336.92H341.021V328.8H353.381V343.88H355.581V352H343.221V336.92ZM338.341 328.8V342C338.341 342.76 338.535 343.373 338.921 343.84C339.308 344.293 339.808 344.52 340.421 344.52C340.875 344.52 341.315 344.373 341.741 344.08C342.168 343.773 342.521 343.267 342.801 342.56C343.081 341.84 343.221 340.867 343.221 339.64L344.581 345.28H342.901C342.568 347.693 341.808 349.513 340.621 350.74C339.435 351.953 337.688 352.56 335.381 352.56C332.941 352.56 331.128 351.933 329.941 350.68C328.768 349.413 328.181 347.68 328.181 345.48V336.96H326.061V328.8H338.341ZM366.894 343.88H368.734V352H354.534V343.88H356.734V336.92H354.534V328.8H366.894V343.88ZM374.134 337.84C373.974 337.8 373.794 337.773 373.594 337.76C373.394 337.733 373.12 337.72 372.774 337.72C370.8 337.72 369.327 338.08 368.354 338.8C367.38 339.52 366.894 340.613 366.894 342.08L365.534 335.52H367.214C367.32 333.947 367.594 332.64 368.034 331.6C368.487 330.547 369.127 329.76 369.954 329.24C370.794 328.707 371.854 328.44 373.134 328.44C373.334 328.44 373.514 328.453 373.674 328.48C373.847 328.493 374 328.52 374.134 328.56V337.84ZM381.562 352.56V328.52H379.362V320.4H391.722V338.4L391.602 339.2V342.24L391.722 345.52L381.962 352.56H381.562ZM395.642 352.48C394.162 352.48 392.722 352.3 391.322 351.94C389.935 351.58 388.655 351.007 387.482 350.22C386.322 349.433 385.348 348.4 384.562 347.12L391.602 340.4C391.602 341.107 391.728 341.72 391.982 342.24C392.248 342.747 392.622 343.14 393.102 343.42C393.582 343.7 394.148 343.84 394.802 343.84C395.455 343.84 396.022 343.7 396.502 343.42C396.982 343.14 397.348 342.747 397.602 342.24C397.868 341.72 398.002 341.107 398.002 340.4C398.002 339.693 397.868 339.087 397.602 338.58C397.348 338.06 396.982 337.66 396.502 337.38C396.022 337.1 395.455 336.96 394.802 336.96C394.148 336.96 393.582 337.1 393.102 337.38C392.622 337.66 392.248 338.06 391.982 338.58C391.728 339.087 391.602 339.693 391.602 340.4L391.082 335.76H392.042C392.295 334.04 392.695 332.633 393.242 331.54C393.788 330.433 394.515 329.62 395.422 329.1C396.328 328.58 397.442 328.32 398.762 328.32C400.375 328.32 401.788 328.667 403.002 329.36C404.215 330.04 405.228 330.96 406.042 332.12C406.855 333.267 407.462 334.56 407.862 336C408.275 337.427 408.482 338.893 408.482 340.4C408.482 342.987 407.935 345.18 406.842 346.98C405.748 348.78 404.235 350.147 402.302 351.08C400.382 352.013 398.162 352.48 395.642 352.48ZM426.205 352C425.045 352 424.145 351.68 423.505 351.04C422.879 350.4 422.565 349.493 422.565 348.32V344.52L423.125 343.72L422.805 341.48L422.565 340.44V338.36C422.565 337.813 422.445 337.387 422.205 337.08C421.979 336.773 421.672 336.56 421.285 336.44C420.912 336.307 420.512 336.24 420.085 336.24C419.485 336.24 418.925 336.367 418.405 336.62C417.899 336.86 417.552 337.333 417.365 338.04L408.285 336.96C408.512 335.24 409.085 333.72 410.005 332.4C410.925 331.067 412.292 330.027 414.105 329.28C415.932 328.533 418.312 328.16 421.245 328.16C423.539 328.16 425.545 328.427 427.265 328.96C428.985 329.48 430.325 330.36 431.285 331.6C432.245 332.84 432.725 334.52 432.725 336.64V343.84H434.725V352H426.205ZM414.565 352.6C412.152 352.6 410.345 352.033 409.145 350.9C407.959 349.753 407.365 348.24 407.365 346.36C407.365 344.2 408.132 342.6 409.665 341.56C411.212 340.507 413.445 339.773 416.365 339.36L423.645 338.28V341.64L420.245 342.16C419.445 342.253 418.872 342.46 418.525 342.78C418.179 343.1 418.005 343.493 418.005 343.96C418.005 344.44 418.172 344.807 418.505 345.06C418.839 345.313 419.272 345.44 419.805 345.44C420.272 345.44 420.732 345.32 421.185 345.08C421.652 344.827 422.039 344.413 422.345 343.84C422.652 343.267 422.805 342.48 422.805 341.48L423.725 346.16H422.365C422.072 348.373 421.232 350 419.845 351.04C418.472 352.08 416.712 352.6 414.565 352.6ZM445.809 343.88H447.649V352H433.449V343.88H435.649V336.92H433.449V328.8H445.809V343.88ZM450.689 343.88V338.8C450.689 338.04 450.496 337.433 450.109 336.98C449.736 336.513 449.236 336.28 448.609 336.28C448.036 336.28 447.536 336.48 447.109 336.88C446.696 337.28 446.376 337.847 446.149 338.58C445.923 339.3 445.809 340.16 445.809 341.16L444.449 335.92H446.129C446.356 334.227 446.803 332.813 447.469 331.68C448.149 330.533 449.029 329.673 450.109 329.1C451.189 328.527 452.463 328.24 453.929 328.24C456.169 328.24 457.883 328.86 459.069 330.1C460.256 331.34 460.849 333.12 460.849 335.44V343.88H462.849V352H448.849V343.88H450.689ZM473.757 343.88H475.197V352H461.397V343.88H463.597V328.52H461.397V320.4H473.757V343.88ZM485.077 337.52L489.757 343.88H491.557V352H476.837V343.88H478.477L476.037 340.56L485.077 337.52ZM470.157 345.24L468.917 342.12L479.397 336.92H475.597V328.8H491.157V336.92H488.157L470.157 345.24ZM517.426 352C516.266 352 515.366 351.68 514.726 351.04C514.099 350.4 513.786 349.493 513.786 348.32V344.52L514.346 343.72L514.026 341.48L513.786 340.44V338.36C513.786 337.813 513.666 337.387 513.426 337.08C513.199 336.773 512.892 336.56 512.506 336.44C512.132 336.307 511.732 336.24 511.306 336.24C510.706 336.24 510.146 336.367 509.626 336.62C509.119 336.86 508.772 337.333 508.586 338.04L499.506 336.96C499.732 335.24 500.306 333.72 501.226 332.4C502.146 331.067 503.512 330.027 505.326 329.28C507.152 328.533 509.532 328.16 512.466 328.16C514.759 328.16 516.766 328.427 518.486 328.96C520.206 329.48 521.546 330.36 522.506 331.6C523.466 332.84 523.946 334.52 523.946 336.64V343.84H525.946V352H517.426ZM505.786 352.6C503.372 352.6 501.566 352.033 500.366 350.9C499.179 349.753 498.586 348.24 498.586 346.36C498.586 344.2 499.352 342.6 500.886 341.56C502.432 340.507 504.666 339.773 507.586 339.36L514.866 338.28V341.64L511.466 342.16C510.666 342.253 510.092 342.46 509.746 342.78C509.399 343.1 509.226 343.493 509.226 343.96C509.226 344.44 509.392 344.807 509.726 345.06C510.059 345.313 510.492 345.44 511.026 345.44C511.492 345.44 511.952 345.32 512.406 345.08C512.872 344.827 513.259 344.413 513.566 343.84C513.872 343.267 514.026 342.48 514.026 341.48L514.946 346.16H513.586C513.292 348.373 512.452 350 511.066 351.04C509.692 352.08 507.932 352.6 505.786 352.6ZM537.992 352.56C535.192 352.56 532.765 352.053 530.712 351.04C528.672 350.027 527.092 348.613 525.972 346.8C524.865 344.973 524.312 342.84 524.312 340.4C524.312 338.573 524.605 336.92 525.192 335.44C525.778 333.947 526.572 332.667 527.572 331.6C528.585 330.52 529.718 329.693 530.972 329.12C532.238 328.533 533.538 328.24 534.872 328.24C536.085 328.24 537.112 328.493 537.952 329C538.792 329.507 539.452 330.287 539.932 331.34C540.412 332.38 540.712 333.707 540.832 335.32H542.872L541.152 339.84C541.112 339.08 540.952 338.44 540.672 337.92C540.405 337.4 540.038 337.013 539.572 336.76C539.118 336.493 538.592 336.36 537.992 336.36C537.338 336.36 536.765 336.513 536.272 336.82C535.792 337.127 535.418 337.567 535.152 338.14C534.885 338.7 534.752 339.36 534.752 340.12C534.752 340.907 534.885 341.58 535.152 342.14C535.432 342.687 535.818 343.107 536.312 343.4C536.818 343.693 537.418 343.84 538.112 343.84C538.952 343.84 539.638 343.633 540.172 343.22C540.705 342.807 541.032 342.253 541.152 341.56L551.312 344.24C550.672 346.813 549.178 348.847 546.832 350.34C544.498 351.82 541.552 352.56 537.992 352.56ZM541.152 339.84V328.8H551.312V339.84H541.152ZM563.482 352.56C560.682 352.56 558.256 352.053 556.202 351.04C554.162 350.027 552.582 348.613 551.462 346.8C550.356 344.973 549.802 342.84 549.802 340.4C549.802 338.573 550.096 336.92 550.682 335.44C551.269 333.947 552.062 332.667 553.062 331.6C554.076 330.52 555.209 329.693 556.462 329.12C557.729 328.533 559.029 328.24 560.362 328.24C561.576 328.24 562.602 328.493 563.442 329C564.282 329.507 564.942 330.287 565.422 331.34C565.902 332.38 566.202 333.707 566.322 335.32H568.362L566.642 339.84C566.602 339.08 566.442 338.44 566.162 337.92C565.896 337.4 565.529 337.013 565.062 336.76C564.609 336.493 564.082 336.36 563.482 336.36C562.829 336.36 562.256 336.513 561.762 336.82C561.282 337.127 560.909 337.567 560.642 338.14C560.376 338.7 560.242 339.36 560.242 340.12C560.242 340.907 560.376 341.58 560.642 342.14C560.922 342.687 561.309 343.107 561.802 343.4C562.309 343.693 562.909 343.84 563.602 343.84C564.442 343.84 565.129 343.633 565.662 343.22C566.196 342.807 566.522 342.253 566.642 341.56L576.802 344.24C576.162 346.813 574.669 348.847 572.322 350.34C569.989 351.82 567.042 352.56 563.482 352.56ZM566.642 339.84V328.8H576.802V339.84H566.642ZM588.973 352.56C586.173 352.56 583.746 352.053 581.693 351.04C579.653 350.027 578.073 348.613 576.953 346.8C575.846 344.973 575.293 342.847 575.293 340.42C575.293 337.98 575.846 335.847 576.953 334.02C578.073 332.193 579.653 330.773 581.693 329.76C583.746 328.747 586.173 328.24 588.973 328.24C591.773 328.24 594.193 328.747 596.233 329.76C598.286 330.773 599.866 332.193 600.973 334.02C602.093 335.847 602.653 337.98 602.653 340.42C602.653 342.847 602.099 344.973 600.993 346.8C599.886 348.613 598.306 350.027 596.253 351.04C594.213 352.053 591.786 352.56 588.973 352.56ZM588.973 343.84C589.626 343.84 590.193 343.693 590.673 343.4C591.153 343.107 591.519 342.707 591.773 342.2C592.039 341.68 592.173 341.08 592.173 340.4C592.173 339.72 592.039 339.12 591.773 338.6C591.519 338.08 591.153 337.68 590.673 337.4C590.193 337.107 589.626 336.96 588.973 336.96C588.319 336.96 587.753 337.107 587.273 337.4C586.793 337.68 586.419 338.08 586.153 338.6C585.899 339.12 585.773 339.72 585.773 340.4C585.773 341.08 585.899 341.68 586.153 342.2C586.419 342.707 586.793 343.107 587.273 343.4C587.753 343.693 588.319 343.84 588.973 343.84ZM618.249 336.92H616.049V328.8H628.409V343.88H630.609V352H618.249V336.92ZM613.369 328.8V342C613.369 342.76 613.563 343.373 613.949 343.84C614.336 344.293 614.836 344.52 615.449 344.52C615.903 344.52 616.343 344.373 616.769 344.08C617.196 343.773 617.549 343.267 617.829 342.56C618.109 341.84 618.249 340.867 618.249 339.64L619.609 345.28H617.929C617.596 347.693 616.836 349.513 615.649 350.74C614.463 351.953 612.716 352.56 610.409 352.56C607.969 352.56 606.156 351.933 604.969 350.68C603.796 349.413 603.209 347.68 603.209 345.48V336.96H601.089V328.8H613.369ZM641.922 343.88H643.762V352H629.562V343.88H631.762V336.92H629.562V328.8H641.922V343.88ZM646.802 343.88V338.8C646.802 338.04 646.609 337.433 646.222 336.98C645.849 336.513 645.349 336.28 644.722 336.28C644.149 336.28 643.649 336.48 643.222 336.88C642.809 337.28 642.489 337.847 642.262 338.58C642.035 339.3 641.922 340.16 641.922 341.16L640.562 335.92H642.242C642.469 334.227 642.915 332.813 643.582 331.68C644.262 330.533 645.142 329.673 646.222 329.1C647.302 328.527 648.575 328.24 650.042 328.24C652.282 328.24 653.995 328.86 655.182 330.1C656.369 331.34 656.962 333.12 656.962 335.44V343.88H658.962V352H644.962V343.88H646.802ZM669.65 342.12C669.65 342.56 669.717 342.893 669.85 343.12C669.997 343.333 670.197 343.44 670.45 343.44C670.717 343.44 670.917 343.333 671.05 343.12C671.184 342.893 671.25 342.56 671.25 342.12V340.08H679.73V342.08C679.73 344.133 679.37 345.933 678.65 347.48C677.944 349.027 676.83 350.233 675.31 351.1C673.804 351.967 671.85 352.4 669.45 352.4C667.13 352.4 665.237 351.967 663.77 351.1C662.304 350.233 661.224 349.033 660.53 347.5C659.837 345.953 659.49 344.16 659.49 342.12V336.96H656.29V328.8H659.49V322.32H669.65V328.8H679.77L679.73 336.96H669.65V342.12Z" fill="white"/>
<path fill-rule="evenodd" clip-rule="evenodd" d="M304.37 236.614C302.355 235.443 301 233.261 301 230.763C301 227.028 304.028 224 307.763 224C309.144 224 310.429 224.414 311.5 225.126C312.571 224.414 313.856 224 315.237 224C318.972 224 322 227.028 322 230.763C322 233.261 320.645 235.443 318.63 236.614C318.383 237.419 317.988 238.207 317.428 238.946C314.453 242.877 308.547 242.877 305.572 238.946C305.012 238.207 304.617 237.419 304.37 236.614Z" fill="#7C2F2F"/>
<path fill-rule="evenodd" clip-rule="evenodd" d="M397.37 236.614C395.355 235.443 394 233.261 394 230.763C394 227.028 397.028 224 400.763 224C402.144 224 403.429 224.414 404.5 225.126C405.571 224.414 406.856 224 408.237 224C411.972 224 415 227.028 415 230.763C415 233.261 413.645 235.443 411.63 236.614C411.383 237.419 410.988 238.207 410.428 238.946C407.453 242.877 401.547 242.877 398.572 238.946C398.012 238.207 397.617 237.419 397.37 236.614Z" fill="#7C2F2F"/>
<path fill-rule="evenodd" clip-rule="evenodd" d="M335.37 236.614C333.355 235.443 332 233.261 332 230.763C332 227.028 335.028 224 338.763 224C340.144 224 341.429 224.414 342.5 225.126C343.571 224.414 344.856 224 346.237 224C349.972 224 353 227.028 353 230.763C353 233.261 351.645 235.443 349.63 236.614C349.383 237.419 348.988 238.207 348.428 238.946C345.453 242.877 339.547 242.877 336.572 238.946C336.012 238.207 335.617 237.419 335.37 236.614Z" fill="#7C2F2F"/>
<path fill-rule="evenodd" clip-rule="evenodd" d="M428.37 236.614C426.355 235.443 425 233.261 425 230.763C425 227.028 428.028 224 431.763 224C433.144 224 434.429 224.414 435.5 225.126C436.571 224.414 437.856 224 439.237 224C442.972 224 446 227.028 446 230.763C446 233.261 444.645 235.443 442.63 236.614C442.383 237.419 441.988 238.207 441.428 238.946C438.453 242.877 432.547 242.877 429.572 238.946C429.012 238.207 428.617 237.419 428.37 236.614Z" fill="#7C2F2F"/>
<path fill-rule="evenodd" clip-rule="evenodd" d="M366.37 236.614C364.355 235.443 363 233.261 363 230.763C363 227.028 366.028 224 369.763 224C371.144 224 372.429 224.414 373.5 225.126C374.571 224.414 375.856 224 377.237 224C380.972 224 384 227.028 384 230.763C384 233.261 382.645 235.443 380.63 236.614C380.383 237.419 379.988 238.207 379.428 238.946C376.453 242.877 370.547 242.877 367.572 238.946C367.012 238.207 366.617 237.419 366.37 236.614Z" fill="#7C2F2F"/>
<path fill-rule="evenodd" clip-rule="evenodd" d="M459.37 236.614C457.355 235.443 456 233.261 456 230.763C456 227.028 459.028 224 462.763 224C464.144 224 465.429 224.414 466.5 225.126C467.571 224.414 468.856 224 470.237 224C473.972 224 477 227.028 477 230.763C477 233.261 475.645 235.443 473.63 236.614C473.383 237.419 472.988 238.207 472.428 238.946C469.453 242.877 463.547 242.877 460.572 238.946C460.012 238.207 459.617 237.419 459.37 236.614Z" fill="#7C2F2F"/>
<path fill-rule="evenodd" clip-rule="evenodd" d="M118.37 236.614C116.355 235.443 115 233.261 115 230.763C115 227.028 118.028 224 121.763 224C123.144 224 124.429 224.414 125.5 225.126C126.571 224.414 127.856 224 129.237 224C132.972 224 136 227.028 136 230.763C136 233.261 134.645 235.443 132.63 236.614C132.383 237.419 131.988 238.207 131.428 238.946C128.453 242.877 122.547 242.877 119.572 238.946C119.012 238.207 118.617 237.419 118.37 236.614Z" fill="#7C2F2F"/>
<path fill-rule="evenodd" clip-rule="evenodd" d="M211.37 236.614C209.355 235.443 208 233.261 208 230.763C208 227.028 211.028 224 214.763 224C216.144 224 217.429 224.414 218.5 225.126C219.571 224.414 220.856 224 222.237 224C225.972 224 229 227.028 229 230.763C229 233.261 227.645 235.443 225.63 236.614C225.383 237.419 224.988 238.207 224.428 238.946C221.453 242.877 215.547 242.877 212.572 238.946C212.012 238.207 211.617 237.419 211.37 236.614Z" fill="#7C2F2F"/>
<path fill-rule="evenodd" clip-rule="evenodd" d="M149.37 236.614C147.355 235.443 146 233.261 146 230.763C146 227.028 149.028 224 152.763 224C154.144 224 155.429 224.414 156.5 225.126C157.571 224.414 158.856 224 160.237 224C163.972 224 167 227.028 167 230.763C167 233.261 165.645 235.443 163.63 236.614C163.383 237.419 162.988 238.207 162.428 238.946C159.453 242.877 153.547 242.877 150.572 238.946C150.012 238.207 149.617 237.419 149.37 236.614Z" fill="#7C2F2F"/>
<path fill-rule="evenodd" clip-rule="evenodd" d="M242.37 236.614C240.355 235.443 239 233.261 239 230.763C239 227.028 242.028 224 245.763 224C247.144 224 248.429 224.414 249.5 225.126C250.571 224.414 251.856 224 253.237 224C256.972 224 260 227.028 260 230.763C260 233.261 258.645 235.443 256.63 236.614C256.383 237.419 255.988 238.207 255.428 238.946C252.453 242.877 246.547 242.877 243.572 238.946C243.012 238.207 242.617 237.419 242.37 236.614Z" fill="#7C2F2F"/>
<path fill-rule="evenodd" clip-rule="evenodd" d="M180.37 236.614C178.355 235.443 177 233.261 177 230.763C177 227.028 180.028 224 183.763 224C185.144 224 186.429 224.414 187.5 225.126C188.571 224.414 189.856 224 191.237 224C194.972 224 198 227.028 198 230.763C198 233.261 196.645 235.443 194.63 236.614C194.383 237.419 193.988 238.207 193.428 238.946C190.453 242.877 184.547 242.877 181.572 238.946C181.012 238.207 180.617 237.419 180.37 236.614Z" fill="#7C2F2F"/>
<path fill-rule="evenodd" clip-rule="evenodd" d="M273.37 236.614C271.355 235.443 270 233.261 270 230.763C270 227.028 273.028 224 276.763 224C278.144 224 279.429 224.414 280.5 225.126C281.571 224.414 282.856 224 284.237 224C287.972 224 291 227.028 291 230.763C291 233.261 289.645 235.443 287.63 236.614C287.383 237.419 286.988 238.207 286.428 238.946C283.453 242.877 277.547 242.877 274.572 238.946C274.012 238.207 273.617 237.419 273.37 236.614Z" fill="#7C2F2F"/>
<path fill-rule="evenodd" clip-rule="evenodd" d="M490.37 236.614C488.355 235.443 487 233.261 487 230.763C487 227.028 490.028 224 493.763 224C495.144 224 496.429 224.414 497.5 225.126C498.571 224.414 499.856 224 501.237 224C504.972 224 508 227.028 508 230.763C508 233.261 506.645 235.443 504.63 236.614C504.383 237.419 503.988 238.207 503.428 238.946C500.453 242.877 494.547 242.877 491.572 238.946C491.012 238.207 490.617 237.419 490.37 236.614Z" fill="#7C2F2F"/>
<path fill-rule="evenodd" clip-rule="evenodd" d="M583.37 236.614C581.355 235.443 580 233.261 580 230.763C580 227.028 583.028 224 586.763 224C588.144 224 589.429 224.414 590.5 225.126C591.571 224.414 592.856 224 594.237 224C597.972 224 601 227.028 601 230.763C601 233.261 599.645 235.443 597.63 236.614C597.383 237.419 596.988 238.207 596.428 238.946C593.453 242.877 587.547 242.877 584.572 238.946C584.012 238.207 583.617 237.419 583.37 236.614Z" fill="#7C2F2F"/>
<path fill-rule="evenodd" clip-rule="evenodd" d="M521.37 236.614C519.355 235.443 518 233.261 518 230.763C518 227.028 521.028 224 524.763 224C526.144 224 527.429 224.414 528.5 225.126C529.571 224.414 530.856 224 532.237 224C535.972 224 539 227.028 539 230.763C539 233.261 537.645 235.443 535.63 236.614C535.383 237.419 534.988 238.207 534.428 238.946C531.453 242.877 525.547 242.877 522.572 238.946C522.012 238.207 521.617 237.419 521.37 236.614Z" fill="#7C2F2F"/>
<path fill-rule="evenodd" clip-rule="evenodd" d="M614.37 236.614C612.355 235.443 611 233.261 611 230.763C611 227.028 614.028 224 617.763 224C619.144 224 620.429 224.414 621.5 225.126C622.571 224.414 623.856 224 625.237 224C628.972 224 632 227.028 632 230.763C632 233.261 630.645 235.443 628.63 236.614C628.383 237.419 627.988 238.207 627.428 238.946C624.453 242.877 618.547 242.877 615.572 238.946C615.012 238.207 614.617 237.419 614.37 236.614Z" fill="#7C2F2F"/>
<path fill-rule="evenodd" clip-rule="evenodd" d="M552.37 236.614C550.355 235.443 549 233.261 549 230.763C549 227.028 552.028 224 555.763 224C557.144 224 558.429 224.414 559.5 225.126C560.571 224.414 561.856 224 563.237 224C566.972 224 570 227.028 570 230.763C570 233.261 568.645 235.443 566.63 236.614C566.383 237.419 565.988 238.207 565.428 238.946C562.453 242.877 556.547 242.877 553.572 238.946C553.012 238.207 552.617 237.419 552.37 236.614Z" fill="#7C2F2F"/>
<path fill-rule="evenodd" clip-rule="evenodd" d="M645.37 236.614C643.355 235.443 642 233.261 642 230.763C642 227.028 645.028 224 648.763 224C650.144 224 651.429 224.414 652.5 225.126C653.571 224.414 654.856 224 656.237 224C659.972 224 663 227.028 663 230.763C663 233.261 661.645 235.443 659.63 236.614C659.383 237.419 658.988 238.207 658.428 238.946C655.453 242.877 649.547 242.877 646.572 238.946C646.012 238.207 645.617 237.419 645.37 236.614Z" fill="#7C2F2F"/>
<path fill-rule="evenodd" clip-rule="evenodd" d="M304.37 66.6139C302.355 65.443 301 63.2611 301 60.7627C301 57.0278 304.028 54 307.763 54C309.144 54 310.429 54.4144 311.5 55.1256C312.571 54.4144 313.856 54 315.237 54C318.972 54 322 57.0278 322 60.7627C322 63.2611 320.645 65.443 318.63 66.6139C318.383 67.4189 317.988 68.2069 317.428 68.9464C314.453 72.8771 308.547 72.8771 305.572 68.9464C305.012 68.2069 304.617 67.4189 304.37 66.6139Z" fill="#7C2F2F"/>
<path fill-rule="evenodd" clip-rule="evenodd" d="M397.37 66.6139C395.355 65.443 394 63.2611 394 60.7627C394 57.0278 397.028 54 400.763 54C402.144 54 403.429 54.4144 404.5 55.1256C405.571 54.4144 406.856 54 408.237 54C411.972 54 415 57.0278 415 60.7627C415 63.2611 413.645 65.443 411.63 66.6139C411.383 67.4189 410.988 68.2069 410.428 68.9464C407.453 72.8771 401.547 72.8771 398.572 68.9464C398.012 68.2069 397.617 67.4189 397.37 66.6139Z" fill="#7C2F2F"/>
<path fill-rule="evenodd" clip-rule="evenodd" d="M335.37 66.6139C333.355 65.443 332 63.2611 332 60.7627C332 57.0278 335.028 54 338.763 54C340.144 54 341.429 54.4144 342.5 55.1256C343.571 54.4144 344.856 54 346.237 54C349.972 54 353 57.0278 353 60.7627C353 63.2611 351.645 65.443 349.63 66.6139C349.383 67.4189 348.988 68.2069 348.428 68.9464C345.453 72.8771 339.547 72.8771 336.572 68.9464C336.012 68.2069 335.617 67.4189 335.37 66.6139Z" fill="#7C2F2F"/>
<path fill-rule="evenodd" clip-rule="evenodd" d="M428.37 66.6139C426.355 65.443 425 63.2611 425 60.7627C425 57.0278 428.028 54 431.763 54C433.144 54 434.429 54.4144 435.5 55.1256C436.571 54.4144 437.856 54 439.237 54C442.972 54 446 57.0278 446 60.7627C446 63.2611 444.645 65.443 442.63 66.6139C442.383 67.4189 441.988 68.2069 441.428 68.9464C438.453 72.8771 432.547 72.8771 429.572 68.9464C429.012 68.2069 428.617 67.4189 428.37 66.6139Z" fill="#7C2F2F"/>
<path fill-rule="evenodd" clip-rule="evenodd" d="M366.37 66.6139C364.355 65.443 363 63.2611 363 60.7627C363 57.0278 366.028 54 369.763 54C371.144 54 372.429 54.4144 373.5 55.1256C374.571 54.4144 375.856 54 377.237 54C380.972 54 384 57.0278 384 60.7627C384 63.2611 382.645 65.443 380.63 66.6139C380.383 67.4189 379.988 68.2069 379.428 68.9464C376.453 72.8771 370.547 72.8771 367.572 68.9464C367.012 68.2069 366.617 67.4189 366.37 66.6139Z" fill="#7C2F2F"/>
<path fill-rule="evenodd" clip-rule="evenodd" d="M459.37 66.6139C457.355 65.443 456 63.2611 456 60.7627C456 57.0278 459.028 54 462.763 54C464.144 54 465.429 54.4144 466.5 55.1256C467.571 54.4144 468.856 54 470.237 54C473.972 54 477 57.0278 477 60.7627C477 63.2611 475.645 65.443 473.63 66.6139C473.383 67.4189 472.988 68.2069 472.428 68.9464C469.453 72.8771 463.547 72.8771 460.572 68.9464C460.012 68.2069 459.617 67.4189 459.37 66.6139Z" fill="#7C2F2F"/>
<path fill-rule="evenodd" clip-rule="evenodd" d="M118.37 66.6139C116.355 65.443 115 63.2611 115 60.7627C115 57.0278 118.028 54 121.763 54C123.144 54 124.429 54.4144 125.5 55.1256C126.571 54.4144 127.856 54 129.237 54C132.972 54 136 57.0278 136 60.7627C136 63.2611 134.645 65.443 132.63 66.6139C132.383 67.4189 131.988 68.2069 131.428 68.9464C128.453 72.8771 122.547 72.8771 119.572 68.9464C119.012 68.2069 118.617 67.4189 118.37 66.6139Z" fill="#7C2F2F"/>
<path fill-rule="evenodd" clip-rule="evenodd" d="M211.37 66.6139C209.355 65.443 208 63.2611 208 60.7627C208 57.0278 211.028 54 214.763 54C216.144 54 217.429 54.4144 218.5 55.1256C219.571 54.4144 220.856 54 222.237 54C225.972 54 229 57.0278 229 60.7627C229 63.2611 227.645 65.443 225.63 66.6139C225.383 67.4189 224.988 68.2069 224.428 68.9464C221.453 72.8771 215.547 72.8771 212.572 68.9464C212.012 68.2069 211.617 67.4189 211.37 66.6139Z" fill="#7C2F2F"/>
<path fill-rule="evenodd" clip-rule="evenodd" d="M149.37 66.6139C147.355 65.443 146 63.2611 146 60.7627C146 57.0278 149.028 54 152.763 54C154.144 54 155.429 54.4144 156.5 55.1256C157.571 54.4144 158.856 54 160.237 54C163.972 54 167 57.0278 167 60.7627C167 63.2611 165.645 65.443 163.63 66.6139C163.383 67.4189 162.988 68.2069 162.428 68.9464C159.453 72.8771 153.547 72.8771 150.572 68.9464C150.012 68.2069 149.617 67.4189 149.37 66.6139Z" fill="#7C2F2F"/>
<path fill-rule="evenodd" clip-rule="evenodd" d="M242.37 66.6139C240.355 65.443 239 63.2611 239 60.7627C239 57.0278 242.028 54 245.763 54C247.144 54 248.429 54.4144 249.5 55.1256C250.571 54.4144 251.856 54 253.237 54C256.972 54 260 57.0278 260 60.7627C260 63.2611 258.645 65.443 256.63 66.6139C256.383 67.4189 255.988 68.2069 255.428 68.9464C252.453 72.8771 246.547 72.8771 243.572 68.9464C243.012 68.2069 242.617 67.4189 242.37 66.6139Z" fill="#7C2F2F"/>
<path fill-rule="evenodd" clip-rule="evenodd" d="M180.37 66.6139C178.355 65.443 177 63.2611 177 60.7627C177 57.0278 180.028 54 183.763 54C185.144 54 186.429 54.4144 187.5 55.1256C188.571 54.4144 189.856 54 191.237 54C194.972 54 198 57.0278 198 60.7627C198 63.2611 196.645 65.443 194.63 66.6139C194.383 67.4189 193.988 68.2069 193.428 68.9464C190.453 72.8771 184.547 72.8771 181.572 68.9464C181.012 68.2069 180.617 67.4189 180.37 66.6139Z" fill="#7C2F2F"/>
<path fill-rule="evenodd" clip-rule="evenodd" d="M273.37 66.6139C271.355 65.443 270 63.2611 270 60.7627C270 57.0278 273.028 54 276.763 54C278.144 54 279.429 54.4144 280.5 55.1256C281.571 54.4144 282.856 54 284.237 54C287.972 54 291 57.0278 291 60.7627C291 63.2611 289.645 65.443 287.63 66.6139C287.383 67.4189 286.988 68.2069 286.428 68.9464C283.453 72.8771 277.547 72.8771 274.572 68.9464C274.012 68.2069 273.617 67.4189 273.37 66.6139Z" fill="#7C2F2F"/>
<path fill-rule="evenodd" clip-rule="evenodd" d="M490.37 66.6139C488.355 65.443 487 63.2611 487 60.7627C487 57.0278 490.028 54 493.763 54C495.144 54 496.429 54.4144 497.5 55.1256C498.571 54.4144 499.856 54 501.237 54C504.972 54 508 57.0278 508 60.7627C508 63.2611 506.645 65.443 504.63 66.6139C504.383 67.4189 503.988 68.2069 503.428 68.9464C500.453 72.8771 494.547 72.8771 491.572 68.9464C491.012 68.2069 490.617 67.4189 490.37 66.6139Z" fill="#7C2F2F"/>
<path fill-rule="evenodd" clip-rule="evenodd" d="M583.37 66.6139C581.355 65.443 580 63.2611 580 60.7627C580 57.0278 583.028 54 586.763 54C588.144 54 589.429 54.4144 590.5 55.1256C591.571 54.4144 592.856 54 594.237 54C597.972 54 601 57.0278 601 60.7627C601 63.2611 599.645 65.443 597.63 66.6139C597.383 67.4189 596.988 68.2069 596.428 68.9464C593.453 72.8771 587.547 72.8771 584.572 68.9464C584.012 68.2069 583.617 67.4189 583.37 66.6139Z" fill="#7C2F2F"/>
<path fill-rule="evenodd" clip-rule="evenodd" d="M521.37 66.6139C519.355 65.443 518 63.2611 518 60.7627C518 57.0278 521.028 54 524.763 54C526.144 54 527.429 54.4144 528.5 55.1256C529.571 54.4144 530.856 54 532.237 54C535.972 54 539 57.0278 539 60.7627C539 63.2611 537.645 65.443 535.63 66.6139C535.383 67.4189 534.988 68.2069 534.428 68.9464C531.453 72.8771 525.547 72.8771 522.572 68.9464C522.012 68.2069 521.617 67.4189 521.37 66.6139Z" fill="#7C2F2F"/>
<path fill-rule="evenodd" clip-rule="evenodd" d="M614.37 66.6139C612.355 65.443 611 63.2611 611 60.7627C611 57.0278 614.028 54 617.763 54C619.144 54 620.429 54.4144 621.5 55.1256C622.571 54.4144 623.856 54 625.237 54C628.972 54 632 57.0278 632 60.7627C632 63.2611 630.645 65.443 628.63 66.6139C628.383 67.4189 627.988 68.2069 627.428 68.9464C624.453 72.8771 618.547 72.8771 615.572 68.9464C615.012 68.2069 614.617 67.4189 614.37 66.6139Z" fill="#7C2F2F"/>
<path fill-rule="evenodd" clip-rule="evenodd" d="M552.37 66.6139C550.355 65.443 549 63.2611 549 60.7627C549 57.0278 552.028 54 555.763 54C557.144 54 558.429 54.4144 559.5 55.1256C560.571 54.4144 561.856 54 563.237 54C566.972 54 570 57.0278 570 60.7627C570 63.2611 568.645 65.443 566.63 66.6139C566.383 67.4189 565.988 68.2069 565.428 68.9464C562.453 72.8771 556.547 72.8771 553.572 68.9464C553.012 68.2069 552.617 67.4189 552.37 66.6139Z" fill="#7C2F2F"/>
<path fill-rule="evenodd" clip-rule="evenodd" d="M645.37 66.6139C643.355 65.443 642 63.2611 642 60.7627C642 57.0278 645.028 54 648.763 54C650.144 54 651.429 54.4144 652.5 55.1256C653.571 54.4144 654.856 54 656.237 54C659.972 54 663 57.0278 663 60.7627C663 63.2611 661.645 65.443 659.63 66.6139C659.383 67.4189 658.988 68.2069 658.428 68.9464C655.453 72.8771 649.547 72.8771 646.572 68.9464C646.012 68.2069 645.617 67.4189 645.37 66.6139Z" fill="#7C2F2F"/>
<path fill-rule="evenodd" clip-rule="evenodd" d="M304.37 394.614C302.355 393.443 301 391.261 301 388.763C301 385.028 304.028 382 307.763 382C309.144 382 310.429 382.414 311.5 383.126C312.571 382.414 313.856 382 315.237 382C318.972 382 322 385.028 322 388.763C322 391.261 320.645 393.443 318.63 394.614C318.383 395.419 317.988 396.207 317.428 396.946C314.453 400.877 308.547 400.877 305.572 396.946C305.012 396.207 304.617 395.419 304.37 394.614Z" fill="#7C2F2F"/>
<path fill-rule="evenodd" clip-rule="evenodd" d="M397.37 394.614C395.355 393.443 394 391.261 394 388.763C394 385.028 397.028 382 400.763 382C402.144 382 403.429 382.414 404.5 383.126C405.571 382.414 406.856 382 408.237 382C411.972 382 415 385.028 415 388.763C415 391.261 413.645 393.443 411.63 394.614C411.383 395.419 410.988 396.207 410.428 396.946C407.453 400.877 401.547 400.877 398.572 396.946C398.012 396.207 397.617 395.419 397.37 394.614Z" fill="#7C2F2F"/>
<path fill-rule="evenodd" clip-rule="evenodd" d="M335.37 394.614C333.355 393.443 332 391.261 332 388.763C332 385.028 335.028 382 338.763 382C340.144 382 341.429 382.414 342.5 383.126C343.571 382.414 344.856 382 346.237 382C349.972 382 353 385.028 353 388.763C353 391.261 351.645 393.443 349.63 394.614C349.383 395.419 348.988 396.207 348.428 396.946C345.453 400.877 339.547 400.877 336.572 396.946C336.012 396.207 335.617 395.419 335.37 394.614Z" fill="#7C2F2F"/>
<path fill-rule="evenodd" clip-rule="evenodd" d="M428.37 394.614C426.355 393.443 425 391.261 425 388.763C425 385.028 428.028 382 431.763 382C433.144 382 434.429 382.414 435.5 383.126C436.571 382.414 437.856 382 439.237 382C442.972 382 446 385.028 446 388.763C446 391.261 444.645 393.443 442.63 394.614C442.383 395.419 441.988 396.207 441.428 396.946C438.453 400.877 432.547 400.877 429.572 396.946C429.012 396.207 428.617 395.419 428.37 394.614Z" fill="#7C2F2F"/>
<path fill-rule="evenodd" clip-rule="evenodd" d="M366.37 394.614C364.355 393.443 363 391.261 363 388.763C363 385.028 366.028 382 369.763 382C371.144 382 372.429 382.414 373.5 383.126C374.571 382.414 375.856 382 377.237 382C380.972 382 384 385.028 384 388.763C384 391.261 382.645 393.443 380.63 394.614C380.383 395.419 379.988 396.207 379.428 396.946C376.453 400.877 370.547 400.877 367.572 396.946C367.012 396.207 366.617 395.419 366.37 394.614Z" fill="#7C2F2F"/>
<path fill-rule="evenodd" clip-rule="evenodd" d="M459.37 394.614C457.355 393.443 456 391.261 456 388.763C456 385.028 459.028 382 462.763 382C464.144 382 465.429 382.414 466.5 383.126C467.571 382.414 468.856 382 470.237 382C473.972 382 477 385.028 477 388.763C477 391.261 475.645 393.443 473.63 394.614C473.383 395.419 472.988 396.207 472.428 396.946C469.453 400.877 463.547 400.877 460.572 396.946C460.012 396.207 459.617 395.419 459.37 394.614Z" fill="#7C2F2F"/>
<path fill-rule="evenodd" clip-rule="evenodd" d="M118.37 394.614C116.355 393.443 115 391.261 115 388.763C115 385.028 118.028 382 121.763 382C123.144 382 124.429 382.414 125.5 383.126C126.571 382.414 127.856 382 129.237 382C132.972 382 136 385.028 136 388.763C136 391.261 134.645 393.443 132.63 394.614C132.383 395.419 131.988 396.207 131.428 396.946C128.453 400.877 122.547 400.877 119.572 396.946C119.012 396.207 118.617 395.419 118.37 394.614Z" fill="#7C2F2F"/>
<path fill-rule="evenodd" clip-rule="evenodd" d="M211.37 394.614C209.355 393.443 208 391.261 208 388.763C208 385.028 211.028 382 214.763 382C216.144 382 217.429 382.414 218.5 383.126C219.571 382.414 220.856 382 222.237 382C225.972 382 229 385.028 229 388.763C229 391.261 227.645 393.443 225.63 394.614C225.383 395.419 224.988 396.207 224.428 396.946C221.453 400.877 215.547 400.877 212.572 396.946C212.012 396.207 211.617 395.419 211.37 394.614Z" fill="#7C2F2F"/>
<path fill-rule="evenodd" clip-rule="evenodd" d="M149.37 394.614C147.355 393.443 146 391.261 146 388.763C146 385.028 149.028 382 152.763 382C154.144 382 155.429 382.414 156.5 383.126C157.571 382.414 158.856 382 160.237 382C163.972 382 167 385.028 167 388.763C167 391.261 165.645 393.443 163.63 394.614C163.383 395.419 162.988 396.207 162.428 396.946C159.453 400.877 153.547 400.877 150.572 396.946C150.012 396.207 149.617 395.419 149.37 394.614Z" fill="#7C2F2F"/>
<path fill-rule="evenodd" clip-rule="evenodd" d="M242.37 394.614C240.355 393.443 239 391.261 239 388.763C239 385.028 242.028 382 245.763 382C247.144 382 248.429 382.414 249.5 383.126C250.571 382.414 251.856 382 253.237 382C256.972 382 260 385.028 260 388.763C260 391.261 258.645 393.443 256.63 394.614C256.383 395.419 255.988 396.207 255.428 396.946C252.453 400.877 246.547 400.877 243.572 396.946C243.012 396.207 242.617 395.419 242.37 394.614Z" fill="#7C2F2F"/>
<path fill-rule="evenodd" clip-rule="evenodd" d="M180.37 394.614C178.355 393.443 177 391.261 177 388.763C177 385.028 180.028 382 183.763 382C185.144 382 186.429 382.414 187.5 383.126C188.571 382.414 189.856 382 191.237 382C194.972 382 198 385.028 198 388.763C198 391.261 196.645 393.443 194.63 394.614C194.383 395.419 193.988 396.207 193.428 396.946C190.453 400.877 184.547 400.877 181.572 396.946C181.012 396.207 180.617 395.419 180.37 394.614Z" fill="#7C2F2F"/>
<path fill-rule="evenodd" clip-rule="evenodd" d="M273.37 394.614C271.355 393.443 270 391.261 270 388.763C270 385.028 273.028 382 276.763 382C278.144 382 279.429 382.414 280.5 383.126C281.571 382.414 282.856 382 284.237 382C287.972 382 291 385.028 291 388.763C291 391.261 289.645 393.443 287.63 394.614C287.383 395.419 286.988 396.207 286.428 396.946C283.453 400.877 277.547 400.877 274.572 396.946C274.012 396.207 273.617 395.419 273.37 394.614Z" fill="#7C2F2F"/>
<path fill-rule="evenodd" clip-rule="evenodd" d="M490.37 394.614C488.355 393.443 487 391.261 487 388.763C487 385.028 490.028 382 493.763 382C495.144 382 496.429 382.414 497.5 383.126C498.571 382.414 499.856 382 501.237 382C504.972 382 508 385.028 508 388.763C508 391.261 506.645 393.443 504.63 394.614C504.383 395.419 503.988 396.207 503.428 396.946C500.453 400.877 494.547 400.877 491.572 396.946C491.012 396.207 490.617 395.419 490.37 394.614Z" fill="#7C2F2F"/>
<path fill-rule="evenodd" clip-rule="evenodd" d="M583.37 394.614C581.355 393.443 580 391.261 580 388.763C580 385.028 583.028 382 586.763 382C588.144 382 589.429 382.414 590.5 383.126C591.571 382.414 592.856 382 594.237 382C597.972 382 601 385.028 601 388.763C601 391.261 599.645 393.443 597.63 394.614C597.383 395.419 596.988 396.207 596.428 396.946C593.453 400.877 587.547 400.877 584.572 396.946C584.012 396.207 583.617 395.419 583.37 394.614Z" fill="#7C2F2F"/>
<path fill-rule="evenodd" clip-rule="evenodd" d="M521.37 394.614C519.355 393.443 518 391.261 518 388.763C518 385.028 521.028 382 524.763 382C526.144 382 527.429 382.414 528.5 383.126C529.571 382.414 530.856 382 532.237 382C535.972 382 539 385.028 539 388.763C539 391.261 537.645 393.443 535.63 394.614C535.383 395.419 534.988 396.207 534.428 396.946C531.453 400.877 525.547 400.877 522.572 396.946C522.012 396.207 521.617 395.419 521.37 394.614Z" fill="#7C2F2F"/>
<path fill-rule="evenodd" clip-rule="evenodd" d="M614.37 394.614C612.355 393.443 611 391.261 611 388.763C611 385.028 614.028 382 617.763 382C619.144 382 620.429 382.414 621.5 383.126C622.571 382.414 623.856 382 625.237 382C628.972 382 632 385.028 632 388.763C632 391.261 630.645 393.443 628.63 394.614C628.383 395.419 627.988 396.207 627.428 396.946C624.453 400.877 618.547 400.877 615.572 396.946C615.012 396.207 614.617 395.419 614.37 394.614Z" fill="#7C2F2F"/>
<path fill-rule="evenodd" clip-rule="evenodd" d="M552.37 394.614C550.355 393.443 549 391.261 549 388.763C549 385.028 552.028 382 555.763 382C557.144 382 558.429 382.414 559.5 383.126C560.571 382.414 561.856 382 563.237 382C566.972 382 570 385.028 570 388.763C570 391.261 568.645 393.443 566.63 394.614C566.383 395.419 565.988 396.207 565.428 396.946C562.453 400.877 556.547 400.877 553.572 396.946C553.012 396.207 552.617 395.419 552.37 394.614Z" fill="#7C2F2F"/>
<path fill-rule="evenodd" clip-rule="evenodd" d="M645.37 394.614C643.355 393.443 642 391.261 642 388.763C642 385.028 645.028 382 648.763 382C650.144 382 651.429 382.414 652.5 383.126C653.571 382.414 654.856 382 656.237 382C659.972 382 663 385.028 663 388.763C663 391.261 661.645 393.443 659.63 394.614C659.383 395.419 658.988 396.207 658.428 396.946C655.453 400.877 649.547 400.877 646.572 396.946C646.012 396.207 645.617 395.419 645.37 394.614Z" fill="#7C2F2F"/>
<defs>
<filter id="filter0_dd_17_556" x="0" y="0" width="777" height="467" filterUnits="userSpaceOnUse" color-interpolation-filters="sRGB">
<feFlood flood-opacity="0" result="BackgroundImageFix"/>
<feColorMatrix in="SourceAlpha" type="matrix" values="0 0 0 0 0 0 0 0 0 0 0 0 0 0 0 0 0 0 127 0" result="hardAlpha"/>
<feOffset dx="-10" dy="-10"/>
<feGaussianBlur stdDeviation="11.5"/>
<feComposite in2="hardAlpha" operator="out"/>
<feColorMatrix type="matrix" values="0 0 0 0 0.0831229 0 0 0 0 0.425 0 0 0 0 0.0761458 0 0 0 1 0"/>
<feBlend mode="normal" in2="BackgroundImageFix" result="effect1_dropShadow_17_556"/>
<feColorMatrix in="SourceAlpha" type="matrix" values="0 0 0 0 0 0 0 0 0 0 0 0 0 0 0 0 0 0 127 0" result="hardAlpha"/>
<feOffset dx="10" dy="10"/>
<feGaussianBlur stdDeviation="11.5"/>
<feComposite in2="hardAlpha" operator="out"/>
<feColorMatrix type="matrix" values="0 0 0 0 0 0 0 0 0 0.241667 0 0 0 0 0.0386667 0 0 0 1 0"/>
<feBlend mode="normal" in2="effect1_dropShadow_17_556" result="effect2_dropShadow_17_556"/>
<feBlend mode="normal" in="SourceGraphic" in2="effect2_dropShadow_17_556" result="shape"/>
</filter>
</defs>
</svg>
